# xmcd
#
# Track frame offsets:
# 150
# 15127
# 30942
# 44379
# 58415
# 71078
# 83786
# 99372
# 112632
# 127099
#
# Disc length: 1839 seconds
#
#
# Revision: 0
# Processed by: cddbd v1.5.2PL0 Copyright (c) Steve Scherf et al.
# Submitted via: FreeRIP 2.945 
#
DISCID=74072d0a
DTITLE=Bill Anderson - Peanuts and Diamonds and Other Jewels
DYEAR=1900
DGENRE=Country
TTITLE0=Peanuts And Diamonds
TTITLE1=Mean While Back In Cleveland
TTITLE2=Let Me Whisper Darling
TTITLE3=Your Love Blows Me Away
TTITLE4=Why'd The Last Time
TTITLE5=Liars One Believers Zero
TTITLE6=We've Got It All
TTITLE7=Sweet Texas
TTITLE8=Daddy You Know What
TTITLE9=Thanks
EXTD=
EXTT0=
EXTT1=
EXTT2=
EXTT3=
EXTT4=
EXTT5=
EXTT6=
EXTT7=
EXTT8=
EXTT9=
PLAYORDER=
